<?xml version="1.0" encoding="UTF-8"?>
<svg id="Ebene_1" xmlns="http://www.w3.org/2000/svg" version="1.1" viewBox="0 0 160 160">
  <!-- Generator: Adobe Illustrator 30.2.1, SVG Export Plug-In . SVG Version: 2.1.1 Build 1)  -->
  <defs>
    <style>
      .st0 {
        fill-rule: evenodd;
      }
    </style>
  </defs>
  <path class="st0" d="M39.45,81.81l1.32,1.66,1.53,1.53,3.22-.45,1.48-.21.14,1.03v1.67l1.11.62v1.94l.2,1.98,1.82,1.82,1.4,1.98.58,4.54,1.01,2.99.79.47,1.33,1.8h2.38l-.03,1.24.28.62,1.14.38,1.54-.92.67,1.45.64,1.37h1.78l1.93-1.72,1.02-1.01,2.09-.42,2.8,1.82.71.46.81-.69h.7s.16,2.4.16,2.4l.82,1.88.71,1.62v5.76l-.19,1.39-.52,1.98-.06,2.42.28.62,1.14.38,2.65-1.58,1.16-.18.55-.16v-5.42l-.25-2.62-.12-2.73.37-3.13.85-1.61,1.8-.44.29-.07h1.98l1,.54,1.17-.03,1.47-1.9,3.73-.14h4.16l1.28,2.3h4.05l1.54.41.65,1h2.2l.57.22,3.42-.52,1.99-1.06,4.96.23.73,1.87v2.92l-.46,3.9-1.04,2.74v2.39l1.5,1.42,2.55-.94h1.17l-1.17,1.8-.41,2.26,1.02,1.57h2.92l1.94-.77,1.41-1.94v-2.72l-1.6-9.24-.54-3.13.39-6.01,1.17-6.25.65-1.12.36-.63v-.67s-.14-1.28-.14-1.28l-.18-1.6-.14-1.22.72-.85.95-1.11.82-.97-.36-1.24-.45-2.21.05-.7,1.02-.94,1.02-1.57.13-.77-.2-2.37-.36-1.13-.39-2.33.08-2.45-.35-1.75-.62-1.09-.27-.48-.65-.3-1.93-.64-.78-.6-.31-1.31-1.13-.36-1.23-.99-.63-.02-1.34-.04-.97-.6-.22-.49-.85-.77-.83-.04-1.2.51-1-.67-.37-.49-.26-.08-.45.11-.19.32-.27.1-.56.22-.07-.03-1.06-.56-1.36.09-.68.14-.56-.24-.57-.25-1.06.05-.84.04-1.59.59-2.32-.32-1.5.56-1.53.1-1.6-.76-.84-.05-1.3.79-3.3.75-.69-.54-.69-.54-1.6.35-1.87,1.02-1.71-1.07-1.73-.32-1.91.69-.81.88-.57.62-1.71-.38-1.48-.09-1.72.38-1.98.44-1.74,1.49-1.9.52-2.17-.52-2.04-1.58-1.96-2.43-3.73-1.54-1.91.45-2.54-.45-1.43.53-1.94-.53-1.48-.4-2.87.4-1.54,1.54-2.56,1.06-1.99,1.99.44,2.05.38,1.77-.96.96-2.19,3.08-1.11,2.22-1.03,2.06v2.23M22.42,63l1.32,1.66,1.53,1.53,3.22-.45,1.48-.21.14,1.03v1.66l1.11.62v1.94l.2,1.98,1.82,1.82,1.4,1.98.18,1.44,1.32-2.64,1.28-2.56,2.07-2.91-.04-.19-.82-3.81,4.53-4.53,2.56-1.06,2.01-2.01,5.46-.76,2.44.66.45.12,1.21-.44,2.85.5,2.47-.57,6.3,2.61,2.38,2.94.62.48,1.6-1.37,3.16-.7,2.37-.52,2.54.15-.64-.14.29-.31,1.95-.71,2.32-.84,3.93.73.09.05,4.48-.97,1.36,1.05.3-.07,1.92-1.17,3.3.2,1.16.55,1.7-.63,2.32.32,1.16-.43,1.6-.07,2.19-.1.74.32-.48.1.63-.04,2.04-.13-.24-1.43.08-2.45-.35-1.75-.62-1.09-.27-.48-.65-.3-1.93-.64-.78-.6-.31-1.31-1.13-.36-1.23-.99-.63-.02-1.34-.04-.97-.6-.22-.49-.85-.77-.83-.04-1.2.51-1-.67-.37-.49-.26-.08-.45.11-.19.32-.26.1-.57.22-1.13-.59-1.36.09-.69.14-.56-.24-.57-.25-1.07.05-.84.04-1.59.59-2.32-.32-1.5.56-1.53.1-1.03-.49-.57-.27-.84-.05-1.3.79-3.3.75-.69-.54-.69-.54-1.6.35-1.87,1.02-1.71-1.07-1.73-.32-1.91.69-1.38,1.5-1.71-.38-1.48-.09-1.72.38-1.98.44-1.74,1.49-1.9.52-2.17-.52-2.04-1.58-1.97-2.43-3.73-1.54-1.91.45-2.54-.45-1.43.53-1.94-.53-1.48-.4-2.87.4-1.54,1.54-2.56,1.06-1.99,1.99.44,2.05.38,1.77-.96.96-2.19,3.08-1.11,2.22-1.03,2.06v2.23M0,80l.18-5.37.54-5.34.9-5.29,1.25-5.22,1.6-5.13,1.94-5.01,2.27-4.87,2.59-4.7,2.9-4.52,3.2-4.31,3.48-4.09,3.74-3.85,3.99-3.59,4.22-3.31,4.44-3.02,4.63-2.72,4.8-2.4,4.95-2.07,5.08-1.74,5.18-1.39,5.27-1.04,5.32-.68,5.36-.33,5.37.03,5.31.39,5.27.74,5.21,1.09,5.13,1.44,5.02,1.77,4.89,2.1,4.74,2.42,4.57,2.73,4.38,3.03,4.17,3.32,3.93,3.58,3.69,3.84,3.43,4.08,3.15,4.29,2.85,4.49,2.55,4.67,2.23,4.83,1.91,4.97,1.57,5.09,1.23,5.18.88,5.25.53,5.3.18,5.32-.18,5.32-.53,5.3-.88,5.25-1.23,5.18-1.57,5.09-1.91,4.97-2.23,4.83-2.55,4.67-2.85,4.49-3.15,4.29-3.43,4.08-3.69,3.84-3.93,3.59-4.17,3.31-4.38,3.03-4.57,2.73-4.74,2.42-4.89,2.1-5.02,1.77-5.13,1.43-5.21,1.09-5.27.74-5.31.39-5.37.03-5.36-.33-5.32-.68-5.27-1.04-5.18-1.39-5.08-1.73-4.95-2.07-4.8-2.4-4.63-2.72-4.44-3.02-4.22-3.31-3.99-3.59-3.74-3.85-3.48-4.09-3.2-4.31-2.9-4.52-2.59-4.7-2.27-4.87-1.94-5.01-1.6-5.13-1.25-5.22-.9-5.29-.54-5.34L0,80"/>
</svg>