<?xml version="1.0" encoding="UTF-8"?>
<svg id="Ebene_1" xmlns="http://www.w3.org/2000/svg" xmlns:xlink="http://www.w3.org/1999/xlink" version="1.1" viewBox="0 0 527 538">
  <!-- Generator: Adobe Illustrator 30.2.1, SVG Export Plug-In . SVG Version: 2.1.1 Build 1)  -->
  <defs>
    <style>
      .st0 {
        fill: none;
      }

      .st1 {
        fill: #bc0004;
        fill-rule: evenodd;
      }

      .st2, .st3 {
        isolation: isolate;
      }

      .st3 {
        fill: #fff;
        font-family: ArialMT, Arial;
        font-size: 4px;
      }

      .st4 {
        clip-path: url(#clippath);
      }
    </style>
    <clipPath id="clippath">
      <rect class="st0" x="-171" y="-15" width="816" height="570"/>
    </clipPath>
  </defs>
  <g class="st2">
    <text class="st3" transform="translate(-170 554)"><tspan x="0" y="0">G</tspan></text>
  </g>
  <g class="st2">
    <text class="st3" transform="translate(-166.89 554)"><tspan x="0" y="0">S</tspan></text>
  </g>
  <g class="st2">
    <text class="st3" transform="translate(-164.22 554)"><tspan x="0" y="0">P</tspan></text>
  </g>
  <g class="st2">
    <text class="st3" transform="translate(-161.55 554)"><tspan x="0" y="0">u</tspan></text>
  </g>
  <g class="st2">
    <text class="st3" transform="translate(-159.33 554)"><tspan x="0" y="0">b</tspan></text>
  </g>
  <g class="st2">
    <text class="st3" transform="translate(-157.1 554)"><tspan x="0" y="0">l</tspan></text>
  </g>
  <g class="st2">
    <text class="st3" transform="translate(-156.21 554)"><tspan x="0" y="0">i</tspan></text>
  </g>
  <g class="st2">
    <text class="st3" transform="translate(-155.33 554)"><tspan x="0" y="0">s</tspan></text>
  </g>
  <g class="st2">
    <text class="st3" transform="translate(-153.33 554)"><tspan x="0" y="0">h</tspan></text>
  </g>
  <g class="st2">
    <text class="st3" transform="translate(-151.1 554)"><tspan x="0" y="0">e</tspan></text>
  </g>
  <g class="st2">
    <text class="st3" transform="translate(-148.88 554)"><tspan x="0" y="0">r</tspan></text>
  </g>
  <g class="st2">
    <text class="st3" transform="translate(-147.54 554)"><tspan x="0" y="0">V</tspan></text>
  </g>
  <g class="st2">
    <text class="st3" transform="translate(-145.1 554)"><tspan x="0" y="0">e</tspan></text>
  </g>
  <g class="st2">
    <text class="st3" transform="translate(-142.87 554)"><tspan x="0" y="0">r</tspan></text>
  </g>
  <g class="st2">
    <text class="st3" transform="translate(-141.54 554)"><tspan x="0" y="0">s</tspan></text>
  </g>
  <g class="st2">
    <text class="st3" transform="translate(-139.54 554)"><tspan x="0" y="0">i</tspan></text>
  </g>
  <g class="st2">
    <text class="st3" transform="translate(-138.65 554)"><tspan x="0" y="0">o</tspan></text>
  </g>
  <g class="st2">
    <text class="st3" transform="translate(-136.43 554)"><tspan x="0" y="0">n</tspan></text>
  </g>
  <g class="st2">
    <text class="st3" transform="translate(-133.09 554)"><tspan x="0" y="0">5</tspan></text>
  </g>
  <g class="st2">
    <text class="st3" transform="translate(-130.87 554)"><tspan x="0" y="0">1</tspan></text>
  </g>
  <g class="st2">
    <text class="st3" transform="translate(-128.64 554)"><tspan x="0" y="0">4</tspan></text>
  </g>
  <g class="st2">
    <text class="st3" transform="translate(-126.42 554)"><tspan x="0" y="0">.</tspan></text>
  </g>
  <g class="st2">
    <text class="st3" transform="translate(-125.31 554)"><tspan x="0" y="0">9</tspan></text>
  </g>
  <g class="st2">
    <text class="st3" transform="translate(-123.08 554)"><tspan x="0" y="0">8</tspan></text>
  </g>
  <g class="st2">
    <text class="st3" transform="translate(-120.86 554)"><tspan x="0" y="0">.</tspan></text>
  </g>
  <g class="st2">
    <text class="st3" transform="translate(-119.75 554)"><tspan x="0" y="0">9</tspan></text>
  </g>
  <g class="st2">
    <text class="st3" transform="translate(-117.52 554)"><tspan x="0" y="0">9</tspan></text>
  </g>
  <g class="st2">
    <text class="st3" transform="translate(-115.3 554)"><tspan x="0" y="0">.</tspan></text>
  </g>
  <g class="st2">
    <text class="st3" transform="translate(-114.19 554)"><tspan x="0" y="0">9</tspan></text>
  </g>
  <g class="st2">
    <text class="st3" transform="translate(-111.96 554)"><tspan x="0" y="0">3</tspan></text>
  </g>
  <g class="st2">
    <text class="st3" transform="translate(-170 549.75)"><tspan x="0" y="0">G</tspan></text>
  </g>
  <g class="st2">
    <text class="st3" transform="translate(-166.89 549.75)"><tspan x="0" y="0">S</tspan></text>
  </g>
  <g class="st2">
    <text class="st3" transform="translate(-164.22 549.75)"><tspan x="0" y="0">E</tspan></text>
  </g>
  <g class="st2">
    <text class="st3" transform="translate(-161.55 549.75)"><tspan x="0" y="0">d</tspan></text>
  </g>
  <g class="st2">
    <text class="st3" transform="translate(-159.33 549.75)"><tspan x="0" y="0">u</tspan></text>
  </g>
  <g class="st2">
    <text class="st3" transform="translate(-157.1 549.75)"><tspan x="0" y="0">c</tspan></text>
  </g>
  <g class="st2">
    <text class="st3" transform="translate(-155.1 549.75)"><tspan x="0" y="0">a</tspan></text>
  </g>
  <g class="st2">
    <text class="st3" transform="translate(-152.88 549.75)"><tspan x="0" y="0">t</tspan></text>
  </g>
  <g class="st2">
    <text class="st3" transform="translate(-151.77 549.75)"><tspan x="0" y="0">i</tspan></text>
  </g>
  <g class="st2">
    <text class="st3" transform="translate(-150.88 549.75)"><tspan x="0" y="0">o</tspan></text>
  </g>
  <g class="st2">
    <text class="st3" transform="translate(-148.65 549.75)"><tspan x="0" y="0">n</tspan></text>
  </g>
  <g class="st2">
    <text class="st3" transform="translate(-146.43 549.75)"><tspan x="0" y="0">a</tspan></text>
  </g>
  <g class="st2">
    <text class="st3" transform="translate(-144.2 549.75)"><tspan x="0" y="0">l</tspan></text>
  </g>
  <g class="st2">
    <text class="st3" transform="translate(-143.32 549.75)"><tspan x="0" y="0">V</tspan></text>
  </g>
  <g class="st2">
    <text class="st3" transform="translate(-140.87 549.75)"><tspan x="0" y="0">e</tspan></text>
  </g>
  <g class="st2">
    <text class="st3" transform="translate(-138.64 549.75)"><tspan x="0" y="0">r</tspan></text>
  </g>
  <g class="st2">
    <text class="st3" transform="translate(-137.31 549.75)"><tspan x="0" y="0">s</tspan></text>
  </g>
  <g class="st2">
    <text class="st3" transform="translate(-135.31 549.75)"><tspan x="0" y="0">i</tspan></text>
  </g>
  <g class="st2">
    <text class="st3" transform="translate(-134.42 549.75)"><tspan x="0" y="0">o</tspan></text>
  </g>
  <g class="st2">
    <text class="st3" transform="translate(-132.2 549.75)"><tspan x="0" y="0">n</tspan></text>
  </g>
  <g class="st4">
    <polyline class="st1" points="11.87 182.73 17.62 168.33 24.23 154.29 31.65 140.66 39.87 127.5 48.86 114.85 58.58 102.76 69 91.27 80.09 80.41 91.8 70.23 104.09 60.77 116.93 52.05 130.25 44.1 144.03 36.97 158.21 30.66 172.74 25.21 187.56 20.62 202.63 16.93 217.89 14.13 233.29 12.25 248.78 11.29 264.29 11.24 279.79 12.12 295.2 13.91 310.48 16.62 325.57 20.22 340.42 24.72 354.97 30.09 369.18 36.31 383 43.37 396.38 51.24 409.26 59.88 421.61 69.27 433.38 79.39 444.53 90.18 455.02 101.61 464.81 113.65 473.87 126.24 482.17 139.35 489.67 152.94 496.36 166.94 502.2 181.31 507.18 196.01 511.27 210.97 514.47 226.15 516.77 241.5 518.15 256.95 518.61 272.46 518.5 280 485.53 280 449.01 243.48 415.02 229.4 374.42 229.4 343.66 229.4 303.98 229.4 289.9 243.48 266.57 253.14 248.42 271.29 252.42 289.94 255.87 306.04 247.09 314.81 227.11 342.87 216.97 363.14 207.57 381.91 207.57 402.2 219.59 417.3 233.55 431.25 262.93 427.15 276.44 425.26 277.75 434.62 277.75 449.8 287.88 455.41 287.88 473.1 289.68 491.16 306.25 507.73 319.05 525.75 319.13 526.36 304.08 529.56 288.86 531.87 273.54 533.27 258.16 533.78 242.78 533.38 227.45 532.07 212.22 529.86 197.14 526.76 182.28 522.78 167.68 517.93 153.38 512.23 139.45 505.7 125.93 498.36 112.86 490.23 100.29 481.36 88.27 471.75 76.83 461.46 66.02 450.51 55.87 438.94 46.42 426.79 37.7 414.11 29.74 400.94 22.57 387.33 16.22 373.31 10.7 358.95 6.04 344.28 2.25 329.37 14.55 329.37 27.66 329.88 37.76 339.98 40.44 334.74 47.4 334.74 54.76 336.56 57.76 342.23 59.06 353.24 58.62 362.84 57.76 372.03 57.76 384.12 57.76 391.06 59.68 391.61 63.74 392.25 73.05 397.82 77.07 396.48 78.04 394.29 77.83 385.78 76 378.82 75.35 373.92 75.35 353.67 77.83 347.96 80.7 341.35 80.7 329.37 85.11 332.27 86.57 335.36 89.08 333.74 98.93 327.33 106.29 328.82 109.85 332.39 116.65 338.42 122.89 338.42 125.12 333.59 129.04 325.12 136.81 323.85 146.12 323.85 150.8 317.53 153.58 315.88 157.13 305.38 159.15 289.44 164.08 282.5 170.47 276.11 171.16 269.15 171.16 262.33 175.07 260.17 175.07 254.32 175.58 250.71 180.78 251.44 192.11 253.02 197.48 247.65 202.12 241.83 202.12 234.01 198.49 226.77 194.58 218.96 186.89 208.15 183.5 204.77 184.83 198.56 186.37 191.37 179.38 184.38 170.39 180.66 164.96 175.23 149.67 175.23 137.81 175.23 122.17 175.23 109.07 180.66 94.99 194.73 87.37 196.54 80.7 194.73 74.6 189.5 67.65 187.97 61.62 186.64 56.41 186.94 50.41 188.28 45.57 183.01 38.84 180.57 32.76 181.71 26.74 185.48 20.18 181.88 14.55 180.66 12.12 182.54 11.87 182.73"/>
  </g>
</svg>